<svg xmlns="http://www.w3.org/2000/svg" xml:space="preserve" viewBox="0 0 720 720"><path d="M577.1 577H142.8V142.7h434.3zm-432.3-2h430.3V144.7H144.8z"/><path d="M468.52 337.75c-15.62 1.24-28.73 6.86-38.48 16.53-10.04 9.97-14.84 22.12-14.84 37.53 0 23.06 9.47 39.18 30.59 51.96 5.37 3.22 12.69 6.74 25.34 12.19 17.24 7.4 23.64 10.91 27.73 15.29 5.04 5.41 6.45 14.05 3.27 20.67-.62 1.28-2.23 3.43-3.68 4.88-4.88 4.92-12.57 7.52-22.11 7.52-16.12 0-28.15-6.61-37.82-20.91-1.32-1.9-2.52-3.47-2.69-3.47-.37 0-31.83 18.15-32.49 18.77-.41.37-.08 1.24 1.53 3.89 12.57 21.16 32.2 33.56 58.73 37.12 6.94.95 19.96.91 26.62 0 16.7-2.36 29.22-7.89 38.94-17.32 10.33-9.96 15.42-22.86 15.42-39.02 0-10.33-1.69-18.39-5.54-26.37-2.65-5.46-5.29-9.13-9.84-13.76-8.72-8.85-20.01-15.54-42.53-25.21-17.03-7.32-22.73-10.46-26.49-14.47-3.6-3.84-5.13-8.35-4.79-13.97.29-4.46 1.53-7.48 4.26-10.42 3.93-4.26 8.47-6.03 15.5-5.99 7.98 0 13.14 2.07 18.39 7.36 1.86 1.82 4.26 4.75 5.37 6.53 1.28 2.03 2.23 3.14 2.56 3.02 1.07-.45 31.12-19.88 31.12-20.17 0-.17-1.53-2.56-3.39-5.37-3.97-5.95-11.12-13.39-16.04-16.66-9.09-6.03-18.81-9.13-31.62-10.09-6.28-.51-7.1-.51-13.02-.06m-128.67 75.1-.12 73.08-.91 3.43c-1.2 4.51-2.6 7.19-5.08 9.67-3.47 3.47-7.94 4.92-15.38 4.96-10.62.04-16.99-4.46-24.39-17.11-1.2-1.98-2.27-3.6-2.4-3.55-.17.08-7.65 4.59-16.62 10l-16.33 9.92 1.24 2.48c7.4 14.76 20.21 25.92 35.63 31.04 16.29 5.41 37.2 4.92 52.53-1.24 18.39-7.44 29.18-22.82 32.03-45.67.25-2.31.41-28.15.41-76.76v-73.28H340zM276 188h-91.4l45.7-45.7zm-86.5-2h81.7l-40.9-40.8zm43.3 131.7h-91.4l45.7-45.7zm-86.6-2h81.7L187 274.9z"/><path d="M142.8 405.7v-91.4l45.7 45.7zm2-86.6v81.7l40.8-40.9zm84.5.1v-91.4l45.7 45.7zm2-86.5v81.7l40.8-40.9zM360 188.4l-45.7-45.7h91.4zm-40.8-43.7 40.9 40.8 40.8-40.8zm-175.4.5L98.1 99.5h91.4zM103 101.5l40.9 40.8 40.8-40.8zm84.2 128.7v43.2l-43.3-43.2 43.3-43.3z"/><path d="m188.2 275.8-45.7-45.7 45.7-45.7zm-42.8-45.6 40.8 40.8v-81.7zM316.9 187v43.3L273.6 187l43.3-43.3z"/><path d="M317.9 232.7 272.2 187l45.7-45.7zM275 187l40.8 40.8v-81.7z"/><path d="M316.7 273.4h-43.2l43.2-43.2 43.3 43.2z"/><path d="M362.4 274.4H271l45.7-45.7zm-86.5-2h81.7l-40.9-40.8zm-88.8 130.8h43.2l-43.2 43.3-43.3-43.3z"/><path d="m187.1 447.9-45.7-45.7h89.9v1.4zm-40.9-43.7 40.9 40.8 40.8-40.8zm257.1-217.3v43.3L360 186.9l43.3-43.3z"/><path d="m404.3 232.6-45.7-45.7 44.6-44.6.5.5h.6zm-42.9-45.7 40.8 40.8V146zm-131.1-86.4h43.3l-43.3 43.2-43.2-43.2z"/><path d="m230.3 145.2-45.7-45.7H276zm-40.8-43.7 40.9 40.8 40.8-40.8zm-89 42.2V187l-43.2-43.3 43.2-43.2z"/><path d="m101.5 189.4-45.7-45.7L101.5 98zm-42.8-45.7 40.8 40.8v-81.7zm85.1 43.3v-43.3l43.3 43.3-43.3 43.3z"/><path d="M142.8 232.7v-91.4l45.7 45.7zm2-86.6v81.7l40.8-40.9zm128.8 84.1h-43.2l43.2-43.3 43.3 43.3z"/><path d="M319.3 231.2h-91.4l45.7-45.7zm-86.5-2h81.7l-40.9-40.8z"/><path d="M230.3 273.4v43.3l-43.2-43.3 43.2-43.2z"/><path d="m231.3 319.1-45.7-45.7 45.7-45.7zm-42.8-45.7 40.8 40.8v-81.7z"/><path d="M187.1 316.7h43.2L187.1 360l-43.3-43.3z"/><path d="m187.1 361.4-45.7-45.7h91.4zm-40.9-43.7 40.9 40.8 40.8-40.8z"/><path d="M273.5 316.7V360l-43.3-43.3 43.3-43.3z"/><path d="m274.5 362.4-45.7-45.7 45.7-45.7zm-42.9-45.7 40.8 40.8v-81.7zm85.3-216.2v43.2l-43.3-43.2 43.3-43.3z"/><path d="m317.9 146.2-45.7-45.7 45.7-45.7zM275 100.5l40.8 40.8V59.6zM100.5 230.2H57.3l43.2-43.3 43.3 43.3z"/><path d="M146.2 231.2H54.9l45.7-45.7zm-86.5-2h81.7l-40.9-40.8zm40.8-172h43.3l-43.3 43.3-43.2-43.3z"/><path d="M100.5 101.9 54.9 56.2h91.4zM59.7 58.2 100.6 99l40.8-40.8zm346 86.5h-91.4L360 99.1zm-86.5-2h81.7L360 101.9zM276 101.5h-91.4l45.7-45.7zm-86.5-2h81.7l-40.9-40.8z"/><path d="M232.8 144.7h-91.4L187.1 99zm-86.6-2h81.7L187 101.9zm-1.4 176.4-45.7-45.7 45.7-45.7zM102 273.4l40.8 40.8v-81.7z"/><path d="m187.1 188.5-45.7-45.7h91.4zm-40.9-43.7 40.9 40.8 40.8-40.8zm169.5 87.9v-91.4l45.7 45.7zm2-86.5v81.7l40.8-40.9z"/><path d="M186.2 276.1v-91.4l45.7 45.7zm2-86.5v81.7l40.8-40.9z"/><path d="m273.6 274.9-45.7-45.7h91.4zm-40.8-43.7 40.9 40.8 40.8-40.8zm-90 88v-91.4l45.7 45.7zm2-86.6v81.7l40.8-40.9zm86 171.5-.5.6-44.6-44.7 45.7-45.7v89.3zM188.5 360l40.8 40.8v-81.7zm258-171.5-45.7-45.7h91.4zm-40.8-43.7 40.9 40.8 40.8-40.8z"/><path d="M144.8 232.6 99.1 187l45.7-45.7zM102 187l40.8 40.8v-81.7zm86.1-84-45.7-45.7 45.7-45.7zm-42.9-45.7L186 98.1V16.4zm-.4 348.4L99.1 360l45.7-45.7zM102 360l40.8 40.8v-81.7z"/></svg>