<?xml version="1.0" encoding="UTF-8" standalone="no"?>
<!DOCTYPE svg PUBLIC "-//W3C//DTD SVG 1.1//EN" "http://www.w3.org/Graphics/SVG/1.1/DTD/svg11.dtd">
<svg width="100%" height="100%" viewBox="0 0 174 45" version="1.1" xmlns="http://www.w3.org/2000/svg" xmlns:xlink="http://www.w3.org/1999/xlink" xml:space="preserve" xmlns:serif="http://www.serif.com/" style="fill-rule:evenodd;clip-rule:evenodd;stroke-linejoin:round;stroke-miterlimit:2;">
    <g id="layer1" transform="matrix(1,0,0,1,-14.9662,-8.40476)">
        <g id="g4534" transform="matrix(0.104843,0,0,0.104843,14.9362,11.955)">
            <g id="Icon">
                <path id="path4518" d="M301.249,303.352L358.465,360.574L180.114,360.574C142.962,360.574 107.299,349.428 76.828,327.875C53.787,311.527 34.473,289.98 21.101,264.712C7.717,238.706 0.287,209.723 0.287,180.74C0.287,136.158 16.635,93.053 47.106,59.617C57.502,48.471 69.397,38.808 82.031,30.634C111.753,11.314 145.939,0.912 180.864,0.912C229.161,0.912 274.493,19.488 308.68,53.669C342.854,87.855 361.442,133.181 361.442,181.484C361.442,216.409 351.035,250.595 331.709,279.573L326.517,287.009L261.859,222.357L264.086,217.897C269.289,206.008 272.266,193.374 272.266,180.74C272.266,156.222 262.609,133.181 245.51,116.094C228.423,99.001 205.382,89.338 180.864,89.338C168.23,89.338 155.596,92.315 143.712,97.512C133.305,101.972 124.387,107.919 116.218,116.094C114.729,117.577 113.241,119.065 111.753,121.292C97.631,137.641 90.2,158.449 90.2,180.002C90.2,204.519 99.869,227.56 116.956,244.648C134.044,261.741 156.335,271.404 180.114,271.404L270.04,271.404L272.266,273.631L301.249,303.352Z" style="fill-rule:nonzero;"/>
                <path id="path4520" d="M233.679,174.627C233.679,203.692 210.117,227.254 181.052,227.254C151.987,227.254 128.425,203.692 128.425,174.627C128.425,145.562 151.987,122 181.052,122C210.117,122 233.679,145.562 233.679,174.627" style="fill-rule:nonzero;"/>
            </g>
        </g>
        <g id="g4564" transform="matrix(0.240466,0,0,0.240466,58.6789,21.9789)">
            <g id="Font">
                <path id="path4536" d="M36.788,46.365C39.841,46.365 42.387,45.263 44.425,43.055C46.461,40.852 47.48,38.094 47.48,34.786L47.48,34.549C47.48,32.976 47.205,31.477 46.657,30.059C46.109,28.642 45.365,27.402 44.425,26.338C43.484,25.274 42.349,24.448 41.017,23.857C39.684,23.266 38.276,22.971 36.788,22.971C33.732,22.971 31.187,24.075 29.15,26.279C27.112,28.485 26.095,31.241 26.095,34.549L26.095,34.786C26.095,38.094 27.112,40.852 29.15,43.055C31.187,45.263 33.732,46.365 36.788,46.365M46.889,59.006C45.789,60.188 44.63,61.35 43.411,62.492C42.193,63.636 40.838,64.639 39.346,65.505C37.853,66.373 36.163,67.08 34.279,67.631C32.392,68.181 30.232,68.459 27.797,68.459C23.869,68.459 20.233,67.65 16.895,66.037C13.557,64.422 10.63,62.136 8.116,59.185C5.601,56.23 3.638,52.725 2.224,48.667C0.809,44.614 0.102,40.104 0.102,35.139L0.102,34.904C0.102,29.784 0.828,25.137 2.283,20.962C3.735,16.788 5.699,13.205 8.175,10.211C10.649,7.219 13.557,4.914 16.895,3.3C20.233,1.685 23.789,0.878 27.561,0.878C32.431,0.878 36.359,1.784 39.346,3.594C42.331,5.407 44.846,7.454 46.889,9.738L46.889,2.412L73.828,2.412L73.828,85.826L46.889,85.826L46.889,59.006Z" style="fill-rule:nonzero;"/>
                <path id="path4538" d="M121.143,68.46C114.309,68.46 108.929,66.374 105.002,62.198C101.074,58.022 99.112,52.272 99.112,44.946L99.112,2.413L126.05,2.413L126.05,36.322C126.05,39.08 126.747,41.225 128.144,42.762C129.539,44.297 131.245,45.066 133.26,45.066C135.275,45.066 137.038,44.297 138.55,42.762C140.062,41.225 140.818,39.08 140.818,36.322L140.818,2.413L167.757,2.413L167.757,66.923L140.818,66.923L140.818,58.298C138.777,60.977 136.126,63.34 132.866,65.388C129.605,67.434 125.7,68.46 121.143,68.46" style="fill-rule:nonzero;"/>
                <path id="path4540" d="M230.552,46.365C233.605,46.365 236.151,45.263 238.189,43.055C240.225,40.852 241.245,38.094 241.245,34.786L241.245,34.549C241.245,31.241 240.225,28.485 238.189,26.279C236.151,24.075 233.605,22.971 230.552,22.971C227.497,22.971 224.951,24.075 222.914,26.279C220.877,28.485 219.859,31.241 219.859,34.549L219.859,34.786C219.859,36.363 220.133,37.858 220.68,39.275C221.229,40.695 221.973,41.935 222.914,42.997C223.854,44.061 224.97,44.887 226.264,45.478C227.556,46.069 228.985,46.365 230.552,46.365M193.511,2.412L220.45,2.412L220.45,10.329C221.55,9.147 222.708,7.987 223.926,6.843C225.144,5.703 226.499,4.698 227.993,3.829C229.485,2.966 231.175,2.255 233.06,1.704C234.946,1.153 237.106,0.878 239.543,0.878C243.391,0.878 247.006,1.685 250.385,3.3C253.762,4.914 256.709,7.198 259.224,10.152C261.738,13.106 263.702,16.611 265.116,20.667C266.531,24.725 267.237,29.233 267.237,34.195L267.237,34.431C267.237,39.553 266.51,44.199 265.058,48.373C263.603,52.549 261.638,56.132 259.164,59.126C256.689,62.12 253.781,64.422 250.444,66.037C247.104,67.65 243.548,68.459 239.778,68.459C234.906,68.459 230.978,67.553 227.993,65.74C225.007,63.93 222.492,61.882 220.45,59.597L220.45,85.826L193.511,85.826L193.511,2.412Z" style="fill-rule:nonzero;"/>
                <path id="path4542" d="M320.405,52.982C322.767,52.982 324.735,52.095 326.312,50.322C327.887,48.55 328.676,46.128 328.676,43.056L328.676,40.339C327.887,40.026 326.942,39.77 325.839,39.572C324.735,39.377 323.634,39.275 322.531,39.275C319.853,39.275 317.805,39.967 316.388,41.344C314.969,42.722 314.261,44.435 314.261,46.483L314.261,46.719C314.261,48.609 314.851,50.127 316.032,51.269C317.214,52.41 318.671,52.982 320.405,52.982M309.771,68.46C306.699,68.46 303.863,68.024 301.264,67.16C298.665,66.294 296.42,65.013 294.529,63.318C292.639,61.626 291.181,59.559 290.158,57.116C289.133,54.677 288.622,51.84 288.622,48.609L288.622,48.373C288.622,41.916 290.826,36.954 295.239,33.487C299.649,30.022 305.635,28.287 313.197,28.287C314.535,28.287 315.954,28.346 317.451,28.466C318.946,28.584 320.384,28.76 321.763,28.996C323.14,29.233 324.422,29.49 325.604,29.765C326.784,30.041 327.729,30.337 328.439,30.65L328.439,29.586C328.439,26.595 327.494,24.29 325.604,22.675C323.712,21.063 320.679,20.253 316.506,20.253C313.197,20.253 310.105,20.589 307.231,21.258C304.355,21.929 301.5,22.814 298.665,23.916L293.938,6.075C297.72,4.658 301.776,3.517 306.108,2.648C310.44,1.784 315.442,1.349 321.113,1.349C327.729,1.349 333.223,2.041 337.595,3.418C341.967,4.797 345.571,6.902 348.406,9.738C350.846,12.181 352.58,15.016 353.605,18.245C354.628,21.475 355.141,25.453 355.141,30.177L355.141,66.922L328.32,66.922L328.32,60.425C326.034,62.867 323.377,64.815 320.345,66.273C317.312,67.73 313.788,68.46 309.771,68.46" style="fill-rule:nonzero;"/>
                <path id="path4544" d="M402.991,86.182C398.264,86.182 393.834,85.57 389.699,84.35C385.564,83.127 381.683,81.493 378.061,79.448L385.859,61.134C388.299,62.473 390.565,63.516 392.653,64.265C394.739,65.013 396.413,65.388 397.674,65.388C399.328,65.388 400.784,65.072 402.046,64.441L376.761,2.412L404.527,2.412L415.751,36.441L426.031,2.412L453.323,2.412L430.992,62.433C429.415,66.687 427.782,70.309 426.089,73.304C424.394,76.296 422.446,78.739 420.241,80.629C418.034,82.519 415.533,83.915 412.738,84.822C409.941,85.728 406.692,86.182 402.991,86.182" style="fill-rule:nonzero;"/>
                <path id="path4546" d="M504.481,52.982C506.843,52.982 508.812,52.095 510.388,50.322C511.963,48.55 512.752,46.128 512.752,43.056L512.752,40.339C511.963,40.026 511.018,39.77 509.915,39.572C508.812,39.377 507.71,39.275 506.608,39.275C503.929,39.275 501.881,39.967 500.464,41.344C499.046,42.722 498.337,44.435 498.337,46.483L498.337,46.719C498.337,48.609 498.927,50.127 500.109,51.269C501.291,52.41 502.748,52.982 504.481,52.982M493.847,68.46C490.775,68.46 487.94,68.024 485.34,67.16C482.741,66.294 480.496,65.013 478.606,63.318C476.715,61.626 475.257,59.559 474.234,57.116C473.209,54.677 472.698,51.84 472.698,48.609L472.698,48.373C472.698,41.916 474.903,36.954 479.315,33.487C483.725,30.022 489.711,28.287 497.273,28.287C498.612,28.287 500.03,28.346 501.527,28.466C503.022,28.584 504.46,28.76 505.839,28.996C507.216,29.233 508.498,29.49 509.68,29.765C510.86,30.041 511.805,30.337 512.515,30.65L512.515,29.586C512.515,26.595 511.57,24.29 509.68,22.675C507.789,21.063 504.755,20.253 500.582,20.253C497.273,20.253 494.182,20.589 491.307,21.258C488.431,21.929 485.577,22.814 482.741,23.916L478.015,6.075C481.796,4.658 485.852,3.517 490.185,2.648C494.516,1.784 499.518,1.349 505.189,1.349C511.805,1.349 517.299,2.041 521.672,3.418C526.043,4.797 529.647,6.902 532.482,9.738C534.922,12.181 536.656,15.016 537.681,18.245C538.704,21.475 539.217,25.453 539.217,30.177L539.217,66.922L512.396,66.922L512.396,60.425C510.111,62.867 507.453,64.815 504.421,66.273C501.388,67.73 497.864,68.46 493.847,68.46" style="fill-rule:nonzero;"/>
            </g>
        </g>
    </g>
</svg>
