<?xml version="1.0" encoding="UTF-8" standalone="no"?><!DOCTYPE svg PUBLIC "-//W3C//DTD SVG 1.1//EN" "http://www.w3.org/Graphics/SVG/1.1/DTD/svg11.dtd"><svg width="100%" height="100%" viewBox="0 0 791 197" version="1.1" xmlns="http://www.w3.org/2000/svg" xmlns:xlink="http://www.w3.org/1999/xlink" xml:space="preserve" xmlns:serif="http://www.serif.com/" style="fill-rule:evenodd;clip-rule:evenodd;stroke-linejoin:round;stroke-miterlimit:2;"><g><path d="M553.478,84.808c0,8.935 0.073,17.871 -0.051,26.804c-0.032,2.347 0.506,3.272 3.037,3.15c4.458,-0.213 8.937,0.054 13.397,-0.108c12.424,-0.454 20.65,-7.116 23.769,-19.126c1.784,-6.873 1.785,-13.763 0.002,-20.636c-3.119,-12.016 -11.34,-18.678 -23.764,-19.134c-4.462,-0.163 -8.94,0.103 -13.397,-0.108c-2.521,-0.12 -3.079,0.786 -3.044,3.144c0.128,8.669 0.051,17.342 0.051,26.014Zm-19.848,0.147c0,-13.388 0.104,-26.778 -0.068,-40.164c-0.047,-3.696 0.99,-5.157 4.889,-5.076c11.153,0.228 22.316,-0.062 33.468,0.181c24.157,0.525 42.22,18.616 42.992,42.818c0.762,23.889 -11.861,41.354 -33.761,46.625c-3.057,0.735 -6.164,1.229 -9.338,1.227c-11.288,-0.003 -22.577,-0.041 -33.863,0.109c-3.251,0.043 -4.394,-1.14 -4.367,-4.374c0.113,-13.781 0.048,-27.564 0.048,-41.346Z" style="fill:#96a638;fill-rule:nonzero;"/><path d="M647.513,114.642c5.913,0 11.438,0.245 16.935,-0.05c11.581,-0.623 19.662,-7.017 22.763,-17.873c2.176,-7.613 2.22,-15.334 0.01,-22.94c-2.564,-8.83 -8.102,-14.997 -17.242,-17.156c-7.335,-1.732 -14.833,-0.747 -22.465,-0.888c-0.001,19.748 -0.001,39.127 -0.001,58.907Zm-20.044,-29.43c-0,-13.651 0.06,-27.303 -0.045,-40.953c-0.023,-3.096 0.825,-4.569 4.214,-4.523c11.154,0.149 22.315,-0.078 33.469,0.135c25.065,0.478 43.189,18.729 43.67,43.766c0.531,27.709 -17.565,46.545 -45.231,46.943c-10.367,0.149 -20.74,-0.092 -31.105,0.115c-3.741,0.074 -5.096,-1.067 -5.043,-4.925c0.185,-13.517 0.071,-27.038 0.071,-40.558Z" style="fill:#96a638;fill-rule:nonzero;"/><path d="M480.602,63.643c-4.013,10.777 -7.651,20.551 -11.406,30.636l22.817,-0c-3.777,-10.142 -7.45,-20 -11.411,-30.636Zm0.284,-23.614c9.21,-0 9.184,0.011 12.533,8.511c10.116,25.679 20.256,51.347 30.383,77.021c1.799,4.562 1.103,5.565 -3.794,5.612c-15.912,0.153 -14.294,0.439 -19.451,-13.554c-3.049,-8.272 -3.013,-8.286 -11.771,-8.286c-7.352,0 -14.706,0.103 -22.054,-0.06c-2.334,-0.052 -3.475,0.657 -4.192,2.879c-1.447,4.479 -3.17,8.866 -4.762,13.298c-1.357,3.783 -4.054,5.672 -8.047,5.711c-2.888,0.028 -5.775,0.02 -8.663,0.006c-4.698,-0.023 -5.429,-1.052 -3.731,-5.371c9.041,-23.009 18.096,-46.013 27.15,-69.017c1.725,-4.382 3.662,-8.693 5.136,-13.157c0.936,-2.835 2.364,-4.029 5.361,-3.641c1.938,0.252 3.933,0.048 5.902,0.048Z" style="fill:#95a538;fill-rule:nonzero;"/><path d="M389.518,99.13c0,3.679 0.054,7.36 -0.026,11.038c-0.034,1.56 0.404,2.737 1.574,3.812c5.722,5.265 16.062,3.802 19.264,-3.207c3.879,-8.49 3.838,-17.377 0.314,-26.01c-1.956,-4.792 -6.429,-6.293 -12.309,-4.866c-5.62,1.364 -8.813,4.901 -8.817,9.771c-0.003,3.155 0,6.309 0,9.462Zm0.016,29.29l-0,10.42c-0,12.293 -0,12.293 -12.465,12.288c-0.789,-0.001 -1.579,-0.038 -2.365,0.005c-2.49,0.134 -3.563,-1.01 -3.56,-3.515c0.03,-26.409 0.025,-52.818 0.005,-79.228c-0.001,-1.62 0.425,-3.137 2.126,-3.238c3.657,-0.219 7.396,-0.636 10.981,0.247c2.813,0.693 3.272,3.441 3.843,6.333c4.648,-3.364 9.256,-6.152 14.905,-6.908c10.89,-1.456 20.346,3.159 24.828,13.191c5.503,12.319 5.785,24.975 0.391,37.417c-7.177,16.552 -25.371,19.967 -36.799,13.54c-0.42,-0.237 -0.949,-0.284 -1.89,-0.552Z" style="fill:#96a638;fill-rule:nonzero;"/><path d="M749.238,79.171c6.038,-11.276 12.049,-22.315 17.863,-33.457c2.177,-4.172 5.085,-6.424 9.988,-5.981c3.126,0.282 6.298,0.027 9.45,0.059c4.306,0.044 4.975,1.213 2.771,4.95c-9.517,16.141 -19.035,32.28 -28.618,48.382c-1.114,1.871 -1.667,3.704 -1.644,5.899c0.097,8.929 -0.079,17.862 0.1,26.789c0.071,3.51 -0.958,5.109 -4.685,4.865c-3.662,-0.241 -7.357,-0.185 -11.026,-0.013c-3.112,0.146 -4.155,-1.129 -4.11,-4.173c0.131,-8.797 -0.029,-17.599 0.091,-26.395c0.037,-2.722 -0.559,-5.043 -1.968,-7.396c-9.427,-15.738 -18.751,-31.538 -28.066,-47.342c-0.747,-1.27 -2.19,-2.404 -1.238,-4.248c1.07,-2.074 2.964,-1.236 4.539,-1.294c3.017,-0.111 6.054,0.152 9.058,-0.075c4.391,-0.333 7.112,1.613 9.113,5.388c6.012,11.334 12.18,22.584 18.382,34.042Z" style="fill:#96a638;fill-rule:nonzero;"/><path d="M339.125,104.51c-5.969,0.518 -11.297,0.735 -16.222,3.164c-2.534,1.25 -3.566,3.24 -3.153,6.097c0.409,2.833 2.541,3.554 4.75,3.875c4.938,0.714 9.301,-0.812 13.059,-4.042c2.84,-2.44 0.829,-5.633 1.566,-9.094Zm2.096,19.834c-8.044,6.5 -16.602,8.419 -25.998,6.3c-7.456,-1.682 -11.821,-6.514 -13.127,-13.963c-1.25,-7.125 1.13,-12.988 7.026,-17.192c7.419,-5.29 16.046,-6.833 24.89,-7.511c1.542,-0.118 3.101,-0.017 4.795,-0.017c0.077,-1.031 0.16,-1.656 0.165,-2.283c0.064,-8.984 -4.954,-12.632 -13.639,-9.942c-2.534,0.785 -4.737,2.214 -7.043,3.457c-5.824,3.137 -13.116,-1 -13.628,-7.645c-0.093,-1.206 0.795,-1.563 1.451,-2.101c9.604,-7.87 20.591,-10.895 32.736,-8.438c10.471,2.119 17.647,10.429 17.985,21.089c0.434,13.648 0.181,27.32 0.25,40.98c0.009,1.793 -0.53,3.277 -2.466,3.372c-2.745,0.134 -5.529,0.129 -8.255,-0.182c-2.993,-0.34 -4.141,-2.853 -5.142,-5.924Z" style="fill:#96a638;fill-rule:nonzero;"/><path d="M249.242,70.825c5.414,-4.181 10.925,-6.573 17.4,-6.595c13.432,-0.045 22.674,8.111 23.143,21.556c0.481,13.781 0.153,27.59 0.237,41.388c0.016,2.544 -1.102,3.537 -3.583,3.475c-3.546,-0.091 -7.102,-0.156 -10.642,0.018c-3.099,0.152 -4.163,-1.09 -4.133,-4.153c0.116,-11.693 0.072,-23.39 0.034,-35.084c-0.014,-4.35 0.252,-9.121 -4.469,-11.349c-5.02,-2.37 -9.677,-0.575 -13.974,2.498c-1.891,1.352 -2.593,2.939 -2.572,5.299c0.114,12.746 -0.03,25.493 0.11,38.238c0.037,3.41 -1.077,4.795 -4.559,4.561c-3.401,-0.228 -6.831,-0.108 -10.246,-0.031c-2.444,0.056 -3.635,-0.904 -3.631,-3.455c0.032,-19.58 0.026,-39.159 -0.001,-58.739c-0.002,-1.444 0.302,-3.034 1.695,-3.173c3.889,-0.388 7.872,-0.833 11.699,0.297c2.243,0.66 2.893,2.859 3.492,5.249Z" style="fill:#96a638;fill-rule:nonzero;"/><path d="M219.697,73.574c-0.298,0.525 -0.599,1.097 -0.936,1.646c-5.175,8.437 -5.174,8.431 -14.445,4.826c-3.1,-1.205 -6.263,-1.94 -9.605,-1.132c-2.376,0.574 -4.63,1.339 -4.998,4.229c-0.367,2.885 1.862,3.913 3.889,4.738c3.143,1.281 6.425,2.218 9.636,3.335c1.606,0.559 3.211,1.134 4.773,1.804c6.378,2.739 11.25,6.792 11.847,14.292c0.655,8.234 -2.113,14.981 -9.136,19.613c-10.581,6.977 -29.641,5.618 -39.284,-2.616c-1.311,-1.12 -1.868,-2.006 -0.675,-3.557c0.952,-1.239 1.632,-2.685 2.475,-4.011c2.615,-4.116 5.725,-4.972 9.966,-2.563c2.983,1.693 5.965,3.28 9.45,3.628c2.268,0.226 4.479,-0.074 6.551,-0.967c1.91,-0.823 3.155,-2.216 3.3,-4.481c0.143,-2.219 -1.106,-3.505 -2.833,-4.278c-2.498,-1.118 -5.118,-1.961 -7.689,-2.914c-2.943,-1.09 -5.957,-2.018 -8.819,-3.288c-6.8,-3.018 -10.845,-8.181 -11.194,-15.748c-0.331,-7.184 2.386,-13.06 8.354,-17.243c11.327,-7.94 29.928,-5.749 39.373,4.687Z" style="fill:#96a638;fill-rule:nonzero;"/><path d="M40.791,58.87c0.092,-3.338 -2.508,-6.044 -5.842,-6.082c-3.178,-0.035 -5.783,2.386 -5.972,5.552c-0.2,3.333 2.312,6.126 5.638,6.27c3.34,0.145 6.084,-2.405 6.176,-5.74Zm3.941,-3.732c0.008,8.688 -7.065,15.775 -15.751,15.783c-8.688,0.008 -15.775,-7.065 -15.783,-15.75c-0.008,-8.689 7.064,-15.774 15.751,-15.783c8.688,-0.009 15.775,7.064 15.783,15.75Z" style="fill:#fefefd;fill-rule:nonzero;"/><path d="M68.755,40.962c3.329,0.018 5.983,-2.652 5.948,-5.982c-0.034,-3.184 -2.506,-5.724 -5.686,-5.843c-3.341,-0.125 -6.069,2.442 -6.142,5.778c-0.072,3.334 2.549,6.029 5.88,6.047Zm9.886,-10.146c-0.052,8.683 -7.177,15.71 -15.875,15.659c-8.682,-0.051 -15.71,-7.177 -15.659,-15.875c0.052,-8.683 7.176,-15.71 15.875,-15.659c8.682,0.052 15.71,7.178 15.659,15.875Z" style="fill:#fefefd;fill-rule:nonzero;"/><path d="M28.981,70.921c-8.688,0.008 -15.775,-7.065 -15.783,-15.75c-0.008,-8.689 7.064,-15.774 15.751,-15.783c8.688,-0.008 15.775,7.065 15.783,15.751c0.008,8.688 -7.065,15.774 -15.751,15.782Zm34.001,-55.979c8.682,0.051 15.71,7.177 15.659,15.875c-0.052,8.683 -7.177,15.71 -15.875,15.659c-8.682,-0.051 -15.71,-7.177 -15.659,-15.875c0.052,-8.683 7.176,-15.711 15.875,-15.659Zm72.803,124.279c-2.31,-4.098 0.468,-10.308 -6.307,-12.377c-5.526,-1.689 -9.333,2.713 -14.609,2.761c-1.303,-2.753 -2.688,-5.705 -4.098,-8.645c-1.863,-3.884 -5.202,-5.284 -9.355,-3.922c-3.722,1.222 -7.436,2.467 -11.422,3.79c-0.655,-2.84 -1.249,-5.369 -1.822,-7.901c-1.294,-5.719 -4.489,-7.468 -9.903,-5.418c-2.411,0.913 -4.828,1.81 -6.933,2.599c-2.445,-3.096 0.223,-7.165 -3.112,-9.717c-3.485,-2.666 -6.572,-0.358 -10.313,1.125c1.334,-4.944 -1.308,-6.404 -4.688,-7.682c-3.168,-1.198 -6.447,-2.327 -9.458,-4.457c3.047,-1.88 6.35,-2.079 9.128,-3.457c3.204,-1.589 1.236,-6.362 4.69,-8.382c3.477,2.135 6.121,6.735 11.738,3.877c4.647,-2.364 4.774,-7.632 8.395,-10.77c2.01,1.505 4.124,3.035 6.175,4.645c0.969,0.76 1.827,1.2 3.195,0.942c7.653,-1.442 7.889,-1.66 8.244,-9.298c0.04,-0.86 -0.324,-1.857 0.863,-2.754c3.042,1.416 6.372,2.646 9.365,4.438c3.866,2.316 7.217,0.236 10.459,-1.012c2.642,-1.016 0.651,-3.995 1.193,-6.015c0.25,-0.929 -0.524,-2.055 0.98,-3.27c1.462,1.655 2.849,3.387 4.404,4.952c2.863,2.881 10.157,0.961 11.432,-2.972c1.004,-3.098 1.95,-6.215 3.377,-10.78c2.773,3.178 4.769,5.794 7.102,8.062c3.355,3.258 6.007,-0.715 9.887,-0.484c-17.332,-19.54 -33.926,-38.248 -50.568,-57.011c-5.813,5.137 -11.211,9.906 -16.651,14.713c-0.729,-0.595 -1.233,-0.996 -1.726,-1.411c-17.862,-15.023 -43.096,-7.561 -49.735,14.867c-0.831,2.805 -2.291,2.521 -4.284,2.532c-17.705,0.104 -31.525,14.498 -30.726,32.029c0.362,7.934 3.699,14.634 9.258,20.592c-3.313,2.978 -6.481,5.825 -9.735,8.748c30.821,34.763 61.303,69.145 91.943,103.704c21.466,-19.082 42.677,-37.938 63.777,-56.693c-7.061,-6.695 -13.597,-1.177 -20.16,0.052Z" style="fill:#96a638;fill-rule:nonzero;"/><path d="M34.948,52.788c-3.178,-0.035 -5.783,2.386 -5.972,5.552c-0.2,3.333 2.312,6.126 5.638,6.27c3.341,0.145 6.084,-2.405 6.176,-5.74c0.092,-3.338 -2.507,-6.045 -5.842,-6.082Z" style="fill-rule:nonzero;"/><path d="M68.755,40.962c3.329,0.018 5.983,-2.652 5.948,-5.982c-0.034,-3.184 -2.506,-5.724 -5.686,-5.843c-3.341,-0.125 -6.069,2.442 -6.142,5.778c-0.072,3.334 2.549,6.029 5.88,6.047Z" style="fill-rule:nonzero;"/></g></svg>