<?xml version="1.0" encoding="UTF-8"?>
<!-- Generator: Adobe Illustrator 24.1.2, SVG Export Plug-In . SVG Version: 6.00 Build 0)  -->
<svg version="1.1" id="Ebene_1" xmlns="http://www.w3.org/2000/svg" xmlns:xlink="http://www.w3.org/1999/xlink" x="0px" y="0px" viewBox="0 0 151.2 27.4" style="enable-background:new 0 0 151.2 27.4;" xml:space="preserve">
<g>
	<rect y="0.5" width="21.7" height="4.3"/>
	<polygon points="133.9,0.5 129.5,0.5 129.5,4.9 129.5,14.1 129.5,18.4 129.5,26.6 133.9,26.6 133.9,18.4 151.2,18.4 151.2,14.1    133.9,14.1 133.9,4.9 151.2,4.9 151.2,0.5  "/>
	<rect y="22.2" width="21.7" height="4.3"/>
	<g>
		<path d="M36.9,0c-7.5,0-13.5,6.1-13.5,13.5C23.4,21,29.5,27,36.9,27s13.5-6,13.5-13.5C50.4,6.1,44.3,0,36.9,0 M36.9,22.8    c-5.1,0-9.2-4.1-9.2-9.2s4.1-9.2,9.2-9.2s9.2,4.1,9.2,9.2C46.1,18.6,41.9,22.8,36.9,22.8"/>
		<path d="M112.2,0c-7.5,0-13.5,6.1-13.5,13.5c0,7.5,6.1,13.5,13.5,13.5c7.5,0,13.5-6.1,13.5-13.5S119.7,0,112.2,0 M112.2,22.8    c-5.1,0-9.2-4.1-9.2-9.2s4.1-9.2,9.2-9.2s9.2,4.1,9.2,9.2C121.4,18.6,117.3,22.8,112.2,22.8"/>
	</g>
	<rect x="53.7" y="0.7" width="4.3" height="25.9"/>
	<rect x="64" y="0.7" width="4.3" height="25.9"/>
	<polygon points="78,0.5 73.7,0.5 73.7,14.1 73.7,18.4 73.7,26.6 78,26.6 78,18.4 95.4,18.4 95.4,14.1 78,14.1  "/>
</g>
</svg>